<?xml version="1.0" encoding="utf-8"?>
<!-- Generator: Adobe Illustrator 14.0.0, SVG Export Plug-In . SVG Version: 6.00 Build 43363)  -->
<!DOCTYPE svg PUBLIC "-//W3C//DTD SVG 1.1//EN" "http://www.w3.org/Graphics/SVG/1.1/DTD/svg11.dtd">
<svg version="1.1" id="Layer_1" xmlns="http://www.w3.org/2000/svg" xmlns:xlink="http://www.w3.org/1999/xlink" x="0px" y="0px"
	 width="73.833px" height="50px" viewBox="0 0 73.833 50" enable-background="new 0 0 73.833 50" xml:space="preserve">
<path fill="#FFFFFF" d="M51.692,17.506c-0.977-3.662-3.228-6.802-6.248-8.92c-0.017-0.013-1.792-1.282-1.931-1.483
	c-0.141-0.201,0.502-2.291,0.502-2.291S40.339,6.22,38.25,5.718c-2.091-0.504-0.583-4.313-0.583-4.313s-1.964,2.297-5.948,5.164
	l0.013,0.002c-0.484,0.172-0.967,0.368-1.446,0.588c-2.625-1.546-6.464-4.012-9.012-6.561l-0.267-0.267l-0.374,0.053
	c-2.854,0.408-4.23,3.725-4.882,6.416c-1.813,0.208-3.223,1.745-3.223,3.614c0,2.011,1.63,3.642,3.641,3.642
	c2.01,0,3.64-1.63,3.64-3.642c0-1.626-1.068-3.004-2.541-3.47c0.555-2.186,1.559-4.485,3.233-4.987
	c2.401,2.315,5.672,4.493,8.191,6.017c-6.237,3.543-11.549,10.644-11.549,16.919c0,6.172,3.591,13.801,19.183,12.62
	c6.028-0.457,12.779-4.337,14.795-8.935c0.953-2.174,11.941,7.016,10.275,2.784c-1.667-4.232,2.422-5.268,2.422-6.426
	c0-0.905-6.803-1.735,1.209-7.353C73.037,11.966,51.818,17.98,51.692,17.506z M19.734,29.7c-0.835,0-1.513-2.034-1.513-4.542
	c0-2.508,0.677-4.542,1.513-4.542s1.513,2.034,1.513,4.542C21.248,27.666,20.57,29.7,19.734,29.7z M23.478,28.491
	c-0.465,0-0.843-1.133-0.843-2.53s0.377-2.529,0.843-2.529c0.465,0,0.842,1.131,0.842,2.529S23.943,28.491,23.478,28.491z
	 M32.636,19.095c-1.409,0.567-1.953,0.975-2.574,0.421c-0.622-0.554-0.411-0.889-1.591-1.557c-1.182-0.667-1.182-0.667-1.182-0.667
	s-0.592-1.841,1.367-1.673c1.959,0.167,3.508,0.739,4.145,1.546C33.438,17.972,34.045,18.527,32.636,19.095z"/>
</svg>
